<svg width="81" height="83" viewBox="0 0 81 83" fill="none" xmlns="http://www.w3.org/2000/svg">
<path d="M77.8471 25.5095C75.8146 20.609 72.8577 16.1547 69.1412 12.395C65.4358 8.62879 61.0342 5.6344 56.1864 3.58188C51.2202 1.46902 45.8844 0.385969 40.4958 0.397057H40.3146C34.8337 0.424512 29.534 1.52273 24.5424 3.68254C19.7362 5.75611 15.3759 8.75582 11.7054 12.514C8.02488 16.2653 5.10183 20.7039 3.09907 25.5827C1.02011 30.6561 -0.0333138 36.0984 0.000802937 41.5892C0.0279808 47.9405 1.53182 54.2461 4.3402 59.8836L0.181988 78.1872C0.181988 80.5117 2.0482 82.397 4.3402 82.397L22.2504 78.0041C27.8569 80.8621 34.0438 82.3659 40.3236 82.397H40.5139C45.9313 82.397 51.1766 81.3354 56.123 79.2579C60.9463 77.2299 65.3314 74.2704 69.0325 70.5454C72.7649 66.8023 75.7001 62.4278 77.7566 57.5499C79.8855 52.4981 80.9726 47.126 80.9998 41.58C81.0179 36.0066 79.9489 30.5979 77.8471 25.5095ZM22.4134 45.7899C20.0218 45.7899 18.0741 43.8222 18.0741 41.397C18.0741 38.9718 20.0218 37.0042 22.4134 37.0042C24.8051 37.0042 26.7528 38.9718 26.7528 41.397C26.7528 43.8222 24.8142 45.7899 22.4134 45.7899ZM40.4958 45.7899C38.1041 45.7899 36.1564 43.8222 36.1564 41.397C36.1564 38.9718 38.1041 37.0042 40.4958 37.0042C42.8874 37.0042 44.8352 38.9718 44.8352 41.397C44.8352 43.8222 42.8874 45.7899 40.4958 45.7899ZM58.5781 45.7899C56.1864 45.7899 54.2387 43.8222 54.2387 41.397C54.2387 38.9718 56.1864 37.0042 58.5781 37.0042C60.9697 37.0042 62.9175 38.9718 62.9175 41.397C62.9175 43.8222 60.9697 45.7899 58.5781 45.7899Z" fill="white"/>
</svg>
