<svg width="16" height="16" viewBox="0 0 16 16" fill="none" xmlns="http://www.w3.org/2000/svg">
<path opacity="0.75" fill-rule="evenodd" clip-rule="evenodd" d="M11.1028 6.52424C11.1028 9.34861 8.90447 11.5485 6.30142 11.5485C3.69837 11.5485 1.5 9.34861 1.5 6.52424C1.5 3.69987 3.69837 1.5 6.30142 1.5C8.90447 1.5 11.1028 3.69987 11.1028 6.52424ZM9.95469 11.8408C8.92421 12.6012 7.66327 13.0485 6.30142 13.0485C2.82124 13.0485 0 10.1275 0 6.52424C0 2.921 2.82124 0 6.30142 0C9.7816 0 12.6028 2.921 12.6028 6.52424C12.6028 8.16684 12.0165 9.66765 11.0488 10.8146L15.0015 14.9643L13.9154 15.9989L9.95469 11.8408Z" fill="white"/>
</svg>
